<svg width="101" height="26" viewBox="0 0 101 26" fill="none" xmlns="http://www.w3.org/2000/svg">
<path d="M4.08008 9.98047C3.86914 9.98047 3.71094 9.92188 3.60547 9.80469C3.51172 9.6875 3.46484 9.55859 3.46484 9.41797C3.46484 9.27734 3.51172 9.14844 3.60547 9.03125C3.71094 8.91406 3.86914 8.85547 4.08008 8.85547H6.57617C7.70117 8.85547 8.63281 8.74414 9.37109 8.52148C10.1211 8.29883 10.7188 8.01172 11.1641 7.66016C11.6094 7.29688 11.9199 6.88672 12.0957 6.42969C12.2832 5.97266 12.377 5.50977 12.377 5.04102C12.377 4.5957 12.3066 4.15039 12.166 3.70508C12.0371 3.24805 11.7793 2.84375 11.3926 2.49219C11.0059 2.12891 10.4609 1.83594 9.75781 1.61328C9.05469 1.39062 8.13477 1.2793 6.99805 1.2793C6.35352 1.2793 5.71484 1.32617 5.08203 1.41992C4.44922 1.50195 3.88086 1.5957 3.37695 1.70117C2.87305 1.80664 2.46289 1.90625 2.14648 2C1.8418 2.08203 1.68945 2.12891 1.68945 2.14062C1.47852 2.19922 1.32617 2.22852 1.23242 2.22852C1.0332 2.22852 0.875 2.1875 0.757812 2.10547C0.652344 2.01172 0.599609 1.90039 0.599609 1.77148C0.599609 1.54883 0.798828 1.33203 1.19727 1.12109C1.60742 0.910156 2.11719 0.728516 2.72656 0.576172C3.34766 0.412109 4.02148 0.283203 4.74805 0.189453C5.47461 0.0957031 6.16602 0.0488281 6.82227 0.0488281C8.22852 0.0488281 9.37109 0.195312 10.25 0.488281C11.1289 0.78125 11.8203 1.16797 12.3242 1.64844C12.8281 2.11719 13.168 2.65039 13.3438 3.24805C13.5312 3.8457 13.625 4.44922 13.625 5.05859C13.625 5.46875 13.5547 5.9082 13.4141 6.37695C13.2734 6.83398 13.0215 7.27344 12.6582 7.69531C12.3066 8.10547 11.8262 8.46875 11.2168 8.78516C10.6191 9.08984 9.85742 9.28906 8.93164 9.38281C9.86914 9.51172 10.666 9.72852 11.3223 10.0332C11.9785 10.3262 12.5117 10.7012 12.9219 11.1582C13.332 11.6035 13.6309 12.1191 13.8184 12.7051C14.0059 13.2793 14.0996 13.9121 14.0996 14.6035C14.0996 15.4121 13.9766 16.168 13.7305 16.8711C13.4961 17.5742 13.0977 18.1895 12.5352 18.7168C11.9727 19.2324 11.2227 19.6367 10.2852 19.9297C9.35938 20.2227 8.20508 20.3691 6.82227 20.3691C6.13086 20.3691 5.41602 20.3164 4.67773 20.2109C3.93945 20.1172 3.26562 19.9941 2.65625 19.8418C2.05859 19.6777 1.56641 19.4902 1.17969 19.2793C0.792969 19.0684 0.599609 18.8574 0.599609 18.6465C0.599609 18.5176 0.652344 18.4121 0.757812 18.3301C0.875 18.2363 1.0332 18.1895 1.23242 18.1895C1.34961 18.1895 1.49023 18.2129 1.6543 18.2598C1.81836 18.2949 1.99414 18.3418 2.18164 18.4004C2.36914 18.459 2.55664 18.5176 2.74414 18.5762C2.94336 18.6348 3.13086 18.6816 3.30664 18.7168C3.79883 18.8223 4.34375 18.9219 4.94141 19.0156C5.55078 19.1094 6.17773 19.1562 6.82227 19.1562C8.0293 19.1562 9.02539 19.0449 9.81055 18.8223C10.6074 18.5879 11.2344 18.2656 11.6914 17.8555C12.1602 17.4453 12.4824 16.959 12.6582 16.3965C12.8457 15.8223 12.9395 15.1895 12.9395 14.498C12.9395 13.9121 12.8398 13.3496 12.6406 12.8105C12.4531 12.2598 12.1191 11.7793 11.6387 11.3691C11.1582 10.9473 10.5078 10.6133 9.6875 10.3672C8.86719 10.1094 7.83008 9.98047 6.57617 9.98047H4.08008ZM40.7129 14.5332C40.7129 15.2832 40.5781 15.9512 40.3086 16.5371C40.0391 17.1113 39.6641 17.6152 39.1836 18.0488C38.7031 18.4707 38.1289 18.834 37.4609 19.1387C36.8047 19.4316 36.0898 19.6719 35.3164 19.8594C34.543 20.0352 33.7168 20.1582 32.8379 20.2285C31.9707 20.3105 31.0918 20.3516 30.2012 20.3516C28.9473 20.3516 27.6992 20.2871 26.457 20.1582C25.2148 20.0293 24.0547 19.8711 22.9766 19.6836C21.8984 19.4844 20.9434 19.2734 20.1113 19.0508C19.291 18.8281 18.6699 18.6172 18.248 18.418C18.084 18.3359 17.9609 18.2363 17.8789 18.1191C17.8086 17.9902 17.7734 17.8613 17.7734 17.7324C17.7734 17.5918 17.8086 17.4746 17.8789 17.3809C17.9609 17.2754 18.0781 17.2227 18.2305 17.2227C18.3008 17.2227 18.3828 17.2402 18.4766 17.2754C18.9336 17.4629 19.5898 17.668 20.4453 17.8906C21.3008 18.1133 22.2676 18.3242 23.3457 18.5234C24.4355 18.7109 25.5898 18.8691 26.8086 18.998C28.0391 19.127 29.2578 19.1914 30.4648 19.1914C31.6367 19.1914 32.75 19.1152 33.8047 18.9629C34.8594 18.8105 35.7852 18.5527 36.582 18.1895C37.3906 17.8262 38.0293 17.3457 38.498 16.748C38.9785 16.1504 39.2188 15.4121 39.2188 14.5332C39.2188 13.7949 39.0137 13.1914 38.6035 12.7227C38.2051 12.2422 37.6602 11.8613 36.9688 11.5801C36.2773 11.2871 35.4688 11.0703 34.543 10.9297C33.6172 10.7773 32.6328 10.666 31.5898 10.5957C30.5586 10.5137 29.4922 10.4551 28.3906 10.4199C27.2891 10.373 26.2168 10.3027 25.1738 10.209C24.1426 10.1152 23.1641 9.98047 22.2383 9.80469C21.3125 9.62891 20.5039 9.37109 19.8125 9.03125C19.1211 8.69141 18.5703 8.25195 18.1602 7.71289C17.7617 7.17383 17.5625 6.49414 17.5625 5.67383C17.5625 4.92383 17.7031 4.26172 17.9844 3.6875C18.2656 3.11328 18.6523 2.62109 19.1445 2.21094C19.6367 1.78906 20.2168 1.44336 20.8848 1.17383C21.5645 0.892578 22.2969 0.669922 23.082 0.505859C23.8789 0.341797 24.7109 0.224609 25.5781 0.154297C26.457 0.0839844 27.3359 0.0488281 28.2148 0.0488281C29.3047 0.0488281 30.377 0.101562 31.4316 0.207031C32.4863 0.300781 33.4766 0.435547 34.4023 0.611328C35.3281 0.775391 36.1602 0.962891 36.8984 1.17383C37.6367 1.37305 38.2285 1.57812 38.6738 1.78906C38.7676 1.83594 38.8379 1.90625 38.8848 2C38.9316 2.08203 38.9551 2.16992 38.9551 2.26367C38.9551 2.42773 38.8965 2.58008 38.7793 2.7207C38.6738 2.86133 38.5215 2.93164 38.3223 2.93164C38.2051 2.93164 38.1055 2.9082 38.0234 2.86133C37.4023 2.60352 36.7109 2.375 35.9492 2.17578C35.1992 1.96484 34.4023 1.78906 33.5586 1.64844C32.7148 1.50781 31.8418 1.40234 30.9395 1.33203C30.0488 1.25 29.1641 1.20898 28.2852 1.20898C27.0664 1.20898 25.9004 1.2793 24.7871 1.41992C23.6738 1.56055 22.6895 1.80078 21.834 2.14062C20.9902 2.46875 20.3164 2.91406 19.8125 3.47656C19.3086 4.02734 19.0566 4.72461 19.0566 5.56836C19.0566 6.21289 19.2559 6.74023 19.6543 7.15039C20.0645 7.54883 20.6152 7.87109 21.3066 8.11719C21.998 8.36328 22.8066 8.55078 23.7324 8.67969C24.6582 8.79688 25.6367 8.89062 26.668 8.96094C27.7109 9.03125 28.7832 9.0957 29.8848 9.1543C30.9863 9.20117 32.0527 9.28906 33.084 9.41797C34.127 9.53516 35.1113 9.70508 36.0371 9.92773C36.9629 10.1387 37.7715 10.4375 38.4629 10.8242C39.1543 11.2109 39.6992 11.709 40.0977 12.3184C40.5078 12.916 40.7129 13.6543 40.7129 14.5332ZM47.1289 18.8926C47.1289 19.0449 47.123 19.1914 47.1113 19.332C47.0996 19.4609 47.0703 19.5781 47.0234 19.6836C46.9883 19.7773 46.9238 19.8535 46.8301 19.9121C46.7363 19.9707 46.6016 20 46.4258 20C46.0977 20 45.8984 19.9004 45.8281 19.7012C45.7578 19.502 45.7227 19.2324 45.7227 18.8926V7.60742C45.7227 7.31445 45.7637 7.0625 45.8457 6.85156C45.9277 6.64062 46.1328 6.53516 46.4609 6.53516C46.7539 6.53516 46.9355 6.64062 47.0059 6.85156C47.0879 7.0625 47.1289 7.30273 47.1289 7.57227V18.8926ZM45.4941 2.5625C45.4941 2.29297 45.582 2.07031 45.7578 1.89453C45.9336 1.70703 46.1562 1.61328 46.4258 1.61328C46.6953 1.61328 46.9238 1.70703 47.1113 1.89453C47.2988 2.07031 47.3926 2.29297 47.3926 2.5625C47.3926 2.83203 47.2988 3.04883 47.1113 3.21289C46.9238 3.37695 46.6953 3.45898 46.4258 3.45898C46.1562 3.45898 45.9336 3.37695 45.7578 3.21289C45.582 3.04883 45.4941 2.83203 45.4941 2.5625ZM67.2559 18.7695C67.5137 19.0156 67.6426 19.2676 67.6426 19.5254C67.6426 19.877 67.4551 20.0527 67.0801 20.0527C66.8809 20.0527 66.6465 19.9355 66.377 19.7012L60.207 14.0762L54.0371 19.7012C53.8848 19.8301 53.75 19.9238 53.6328 19.9824C53.5273 20.0293 53.416 20.0527 53.2988 20.0527C52.9355 20.0527 52.7539 19.8711 52.7539 19.5078C52.7539 19.2734 52.8887 19.0273 53.1582 18.7695L59.2578 13.1973L53.0879 7.73047C52.8535 7.53125 52.7363 7.31445 52.7363 7.08008C52.7363 6.92773 52.7891 6.79883 52.8945 6.69336C53.0117 6.58789 53.1523 6.53516 53.3164 6.53516C53.5508 6.53516 53.791 6.64062 54.0371 6.85156L60.207 12.3359L66.377 6.85156C66.5996 6.64062 66.834 6.53516 67.0801 6.53516C67.2441 6.53516 67.3789 6.58789 67.4844 6.69336C67.6016 6.78711 67.6602 6.91602 67.6602 7.08008C67.6602 7.30273 67.5488 7.51953 67.3262 7.73047L61.1562 13.1973L67.2559 18.7695ZM80.7207 6.79883C80.8965 6.79883 81.0254 6.8457 81.1074 6.93945C81.2012 7.02148 81.248 7.11523 81.248 7.2207C81.248 7.32617 81.2012 7.42578 81.1074 7.51953C81.0254 7.60156 80.8965 7.64258 80.7207 7.64258H74.8848V15.0957C74.8848 15.9512 74.9727 16.6426 75.1484 17.1699C75.3242 17.6973 75.5586 18.1074 75.8516 18.4004C76.1562 18.6934 76.5078 18.8926 76.9062 18.998C77.3164 19.0918 77.75 19.1387 78.207 19.1387C78.7695 19.1387 79.3203 19.0391 79.8594 18.8398C80.3984 18.6406 81.0195 18.3535 81.7227 17.9785C81.8633 17.9082 81.998 17.873 82.127 17.873C82.2793 17.873 82.3965 17.9199 82.4785 18.0137C82.5723 18.0957 82.6191 18.2012 82.6191 18.3301C82.6191 18.5645 82.4902 18.752 82.2324 18.8926C81.7402 19.1621 81.3008 19.3789 80.9141 19.543C80.5391 19.707 80.1875 19.8359 79.8594 19.9297C79.543 20.0234 79.2324 20.0879 78.9277 20.123C78.623 20.1582 78.3008 20.1758 77.9609 20.1758C77.3281 20.1758 76.7363 20.0879 76.1855 19.9121C75.6465 19.7363 75.1719 19.4551 74.7617 19.0684C74.3633 18.6699 74.0469 18.1484 73.8125 17.5039C73.5898 16.8477 73.4785 16.0449 73.4785 15.0957V7.64258H71.9316C71.7676 7.64258 71.6445 7.60156 71.5625 7.51953C71.4805 7.42578 71.4395 7.32617 71.4395 7.2207C71.4395 7.11523 71.4805 7.02148 71.5625 6.93945C71.6445 6.8457 71.7676 6.79883 71.9316 6.79883H73.4785V2.42188C73.4785 2.04688 73.5547 1.8125 73.707 1.71875C73.8594 1.61328 74.0176 1.56055 74.1816 1.56055C74.3809 1.56055 74.5449 1.61328 74.6738 1.71875C74.8145 1.8125 74.8848 2.04688 74.8848 2.42188V6.79883H80.7207ZM93.0957 24.834C94.3027 24.834 95.3105 24.6992 96.1191 24.4297C96.9277 24.1719 97.5723 23.7383 98.0527 23.1289C98.5449 22.5312 98.8906 21.7285 99.0898 20.7207C99.3008 19.7246 99.4062 18.4883 99.4062 17.0117C99.2773 17.4922 99.0664 17.9023 98.7734 18.2422C98.4805 18.582 98.1289 18.8691 97.7188 19.1035C97.3203 19.3379 96.8809 19.5254 96.4004 19.666C95.9316 19.8066 95.4512 19.918 94.959 20C94.4668 20.0703 93.9805 20.1172 93.5 20.1406C93.0312 20.1641 92.5977 20.1758 92.1992 20.1758C90.9336 20.1758 89.8672 20.0645 89 19.8418C88.1328 19.6074 87.4297 19.2207 86.8906 18.6816C86.3516 18.1309 85.959 17.4102 85.7129 16.5195C85.4785 15.6289 85.3613 14.5215 85.3613 13.1973V7.80078C85.3613 7.64844 85.3672 7.49609 85.3789 7.34375C85.3906 7.19141 85.4199 7.05664 85.4668 6.93945C85.5137 6.82227 85.5781 6.72852 85.6602 6.6582C85.7539 6.57617 85.8828 6.53516 86.0469 6.53516C86.2227 6.53516 86.3574 6.57617 86.4512 6.6582C86.5449 6.72852 86.6152 6.82227 86.6621 6.93945C86.709 7.05664 86.7383 7.19141 86.75 7.34375C86.7617 7.49609 86.7676 7.64844 86.7676 7.80078V13.1973C86.7676 14.3457 86.8379 15.3008 86.9785 16.0625C87.1309 16.8242 87.4062 17.4336 87.8047 17.8906C88.2031 18.3477 88.7539 18.6699 89.457 18.8574C90.1719 19.0449 91.0859 19.1387 92.1992 19.1387C92.8672 19.1387 93.582 19.0918 94.3438 18.998C95.1055 18.9043 95.8262 18.7344 96.5059 18.4883C97.1973 18.2422 97.8008 17.9023 98.3164 17.4688C98.8438 17.0352 99.207 16.4727 99.4062 15.7812V7.80078C99.4062 7.64844 99.4121 7.49609 99.4238 7.34375C99.4473 7.19141 99.4824 7.05664 99.5293 6.93945C99.5762 6.82227 99.6406 6.72852 99.7227 6.6582C99.8164 6.57617 99.9336 6.53516 100.074 6.53516C100.25 6.53516 100.385 6.57617 100.479 6.6582C100.572 6.72852 100.643 6.82227 100.689 6.93945C100.748 7.05664 100.783 7.19141 100.795 7.34375C100.807 7.49609 100.812 7.64844 100.812 7.80078V16.4316C100.812 18.2363 100.666 19.7422 100.373 20.9492C100.092 22.1562 99.6406 23.123 99.0195 23.8496C98.3984 24.5879 97.6016 25.1094 96.6289 25.4141C95.6562 25.7188 94.4785 25.8711 93.0957 25.8711C92.1113 25.8711 91.2793 25.8184 90.5996 25.7129C89.9316 25.6074 89.3633 25.4727 88.8945 25.3086C88.4375 25.1562 88.0566 24.9805 87.752 24.7812C87.4473 24.582 87.1836 24.3945 86.9609 24.2188C86.8672 24.125 86.8203 24.0137 86.8203 23.8848C86.8203 23.7207 86.8613 23.5801 86.9434 23.4629C87.0371 23.3574 87.1777 23.3047 87.3652 23.3047C87.459 23.3047 87.5586 23.3398 87.6641 23.4102C87.8867 23.5742 88.1445 23.7383 88.4375 23.9023C88.7422 24.0781 89.1055 24.2305 89.5273 24.3594C89.9609 24.5 90.4648 24.6113 91.0391 24.6934C91.625 24.7871 92.3105 24.834 93.0957 24.834Z" fill="black"/>
</svg>
