<svg width="21" height="21" viewBox="0 0 21 21" fill="none" xmlns="http://www.w3.org/2000/svg">
<path d="M21 6H19.7647V2.25C19.7647 1.8 19.5176 1.5 19.1471 1.5H1.85294C1.48235 1.5 1.23529 1.8 1.23529 2.25V6H0V2.25C0 0.975 0.802941 0 1.85294 0H19.1471C20.1971 0 21 0.975 21 2.25V6Z" fill="#DDDDDD"/>
<path d="M17.9118 21H3.08829C2.03829 21 1.23535 20.025 1.23535 18.75V6H2.47065V18.75C2.47065 19.2 2.7177 19.5 3.08829 19.5H17.9118C18.2824 19.5 18.5295 19.2 18.5295 18.75V6H19.7648V18.75C19.7648 20.025 18.9618 21 17.9118 21Z" fill="#DDDDDD"/>
<path d="M12.9704 10.5H8.02927C7.65868 10.5 7.41162 10.2 7.41162 9.75C7.41162 9.3 7.65868 9 8.02927 9H12.9704C13.341 9 13.5881 9.3 13.5881 9.75C13.5881 10.2 13.341 10.5 12.9704 10.5Z" fill="#DDDDDD"/>
<path d="M0 4.5H21V6H0V4.5Z" fill="#DDDDDD"/>
</svg>
