<svg width="155" height="145" viewBox="0 0 155 145" fill="none" xmlns="http://www.w3.org/2000/svg">
<circle cx="2.5" cy="2.5" r="2.5" fill="#C4C4C4"/>
<circle cx="12.5" cy="2.5" r="2.5" fill="#C4C4C4"/>
<circle cx="22.5" cy="2.5" r="2.5" fill="#C4C4C4"/>
<circle cx="32.5" cy="2.5" r="2.5" fill="#C4C4C4"/>
<circle cx="42.5" cy="2.5" r="2.5" fill="#C4C4C4"/>
<circle cx="52.5" cy="2.5" r="2.5" fill="#C4C4C4"/>
<circle cx="62.5" cy="2.5" r="2.5" fill="#C4C4C4"/>
<circle cx="72.5" cy="2.5" r="2.5" fill="#C4C4C4"/>
<circle cx="82.5" cy="2.5" r="2.5" fill="#C4C4C4"/>
<circle cx="92.5" cy="2.5" r="2.5" fill="#C4C4C4"/>
<circle cx="102.5" cy="2.5" r="2.5" fill="#C4C4C4"/>
<circle cx="112.5" cy="2.5" r="2.5" fill="#C4C4C4"/>
<circle cx="122.5" cy="2.5" r="2.5" fill="#C4C4C4"/>
<circle cx="132.5" cy="2.5" r="2.5" fill="#C4C4C4"/>
<circle cx="142.5" cy="2.5" r="2.5" fill="#C4C4C4"/>
<circle cx="152.5" cy="2.5" r="2.5" fill="#C4C4C4"/>
<circle cx="2.5" cy="16.5" r="2.5" fill="#C4C4C4"/>
<circle cx="12.5" cy="16.5" r="2.5" fill="#C4C4C4"/>
<circle cx="22.5" cy="16.5" r="2.5" fill="#C4C4C4"/>
<circle cx="32.5" cy="16.5" r="2.5" fill="#C4C4C4"/>
<circle cx="42.5" cy="16.5" r="2.5" fill="#C4C4C4"/>
<circle cx="52.5" cy="16.5" r="2.5" fill="#C4C4C4"/>
<circle cx="62.5" cy="16.5" r="2.5" fill="#C4C4C4"/>
<circle cx="72.5" cy="16.5" r="2.5" fill="#C4C4C4"/>
<circle cx="82.5" cy="16.5" r="2.5" fill="#C4C4C4"/>
<circle cx="92.5" cy="16.5" r="2.5" fill="#C4C4C4"/>
<circle cx="102.5" cy="16.5" r="2.5" fill="#C4C4C4"/>
<circle cx="112.5" cy="16.5" r="2.5" fill="#C4C4C4"/>
<circle cx="122.5" cy="16.5" r="2.5" fill="#C4C4C4"/>
<circle cx="132.5" cy="16.5" r="2.5" fill="#C4C4C4"/>
<circle cx="142.5" cy="16.5" r="2.5" fill="#C4C4C4"/>
<circle cx="152.5" cy="16.5" r="2.5" fill="#C4C4C4"/>
<circle cx="2.5" cy="30.5" r="2.5" fill="#C4C4C4"/>
<circle cx="12.5" cy="30.5" r="2.5" fill="#C4C4C4"/>
<circle cx="22.5" cy="30.5" r="2.5" fill="#C4C4C4"/>
<circle cx="32.5" cy="30.5" r="2.5" fill="#C4C4C4"/>
<circle cx="42.5" cy="30.5" r="2.5" fill="#C4C4C4"/>
<circle cx="52.5" cy="30.5" r="2.5" fill="#C4C4C4"/>
<circle cx="62.5" cy="30.5" r="2.5" fill="#C4C4C4"/>
<circle cx="72.5" cy="30.5" r="2.5" fill="#C4C4C4"/>
<circle cx="82.5" cy="30.5" r="2.5" fill="#C4C4C4"/>
<circle cx="92.5" cy="30.5" r="2.5" fill="#C4C4C4"/>
<circle cx="102.5" cy="30.5" r="2.5" fill="#C4C4C4"/>
<circle cx="112.5" cy="30.5" r="2.5" fill="#C4C4C4"/>
<circle cx="122.5" cy="30.5" r="2.5" fill="#C4C4C4"/>
<circle cx="132.5" cy="30.5" r="2.5" fill="#C4C4C4"/>
<circle cx="142.5" cy="30.5" r="2.5" fill="#C4C4C4"/>
<circle cx="152.5" cy="30.5" r="2.5" fill="#C4C4C4"/>
<circle cx="2.5" cy="44.5" r="2.5" fill="#C4C4C4"/>
<circle cx="12.5" cy="44.5" r="2.5" fill="#C4C4C4"/>
<circle cx="22.5" cy="44.5" r="2.5" fill="#C4C4C4"/>
<circle cx="32.5" cy="44.5" r="2.5" fill="#C4C4C4"/>
<circle cx="42.5" cy="44.5" r="2.5" fill="#C4C4C4"/>
<circle cx="52.5" cy="44.5" r="2.5" fill="#C4C4C4"/>
<circle cx="62.5" cy="44.5" r="2.5" fill="#C4C4C4"/>
<circle cx="72.5" cy="44.5" r="2.5" fill="#C4C4C4"/>
<circle cx="82.5" cy="44.5" r="2.5" fill="#C4C4C4"/>
<circle cx="92.5" cy="44.5" r="2.5" fill="#C4C4C4"/>
<circle cx="102.5" cy="44.5" r="2.5" fill="#C4C4C4"/>
<circle cx="112.5" cy="44.5" r="2.5" fill="#C4C4C4"/>
<circle cx="122.5" cy="44.5" r="2.5" fill="#C4C4C4"/>
<circle cx="132.5" cy="44.5" r="2.5" fill="#C4C4C4"/>
<circle cx="142.5" cy="44.5" r="2.5" fill="#C4C4C4"/>
<circle cx="152.5" cy="44.5" r="2.5" fill="#C4C4C4"/>
<circle cx="2.5" cy="58.5" r="2.5" fill="#C4C4C4"/>
<circle cx="12.5" cy="58.5" r="2.5" fill="#C4C4C4"/>
<circle cx="22.5" cy="58.5" r="2.5" fill="#C4C4C4"/>
<circle cx="32.5" cy="58.5" r="2.5" fill="#C4C4C4"/>
<circle cx="42.5" cy="58.5" r="2.5" fill="#C4C4C4"/>
<circle cx="52.5" cy="58.5" r="2.5" fill="#C4C4C4"/>
<circle cx="62.5" cy="58.5" r="2.5" fill="#C4C4C4"/>
<circle cx="72.5" cy="58.5" r="2.5" fill="#C4C4C4"/>
<circle cx="82.5" cy="58.5" r="2.5" fill="#C4C4C4"/>
<circle cx="92.5" cy="58.5" r="2.5" fill="#C4C4C4"/>
<circle cx="102.5" cy="58.5" r="2.5" fill="#C4C4C4"/>
<circle cx="112.5" cy="58.5" r="2.5" fill="#C4C4C4"/>
<circle cx="122.5" cy="58.5" r="2.5" fill="#C4C4C4"/>
<circle cx="132.5" cy="58.5" r="2.5" fill="#C4C4C4"/>
<circle cx="142.5" cy="58.5" r="2.5" fill="#C4C4C4"/>
<circle cx="152.5" cy="58.5" r="2.5" fill="#C4C4C4"/>
<circle cx="2.5" cy="72.5" r="2.5" fill="#C4C4C4"/>
<circle cx="12.5" cy="72.5" r="2.5" fill="#C4C4C4"/>
<circle cx="22.5" cy="72.5" r="2.5" fill="#C4C4C4"/>
<circle cx="32.5" cy="72.5" r="2.5" fill="#C4C4C4"/>
<circle cx="42.5" cy="72.5" r="2.5" fill="#C4C4C4"/>
<circle cx="52.5" cy="72.5" r="2.5" fill="#C4C4C4"/>
<circle cx="62.5" cy="72.5" r="2.5" fill="#C4C4C4"/>
<circle cx="72.5" cy="72.5" r="2.5" fill="#C4C4C4"/>
<circle cx="82.5" cy="72.5" r="2.5" fill="#C4C4C4"/>
<circle cx="92.5" cy="72.5" r="2.5" fill="#C4C4C4"/>
<circle cx="102.5" cy="72.5" r="2.5" fill="#C4C4C4"/>
<circle cx="112.5" cy="72.5" r="2.5" fill="#C4C4C4"/>
<circle cx="122.5" cy="72.5" r="2.5" fill="#C4C4C4"/>
<circle cx="132.5" cy="72.5" r="2.5" fill="#C4C4C4"/>
<circle cx="142.5" cy="72.5" r="2.5" fill="#C4C4C4"/>
<circle cx="152.5" cy="72.5" r="2.5" fill="#C4C4C4"/>
<circle cx="2.5" cy="86.5" r="2.5" fill="#C4C4C4"/>
<circle cx="12.5" cy="86.5" r="2.5" fill="#C4C4C4"/>
<circle cx="22.5" cy="86.5" r="2.5" fill="#C4C4C4"/>
<circle cx="32.5" cy="86.5" r="2.5" fill="#C4C4C4"/>
<circle cx="42.5" cy="86.5" r="2.5" fill="#C4C4C4"/>
<circle cx="52.5" cy="86.5" r="2.5" fill="#C4C4C4"/>
<circle cx="62.5" cy="86.5" r="2.5" fill="#C4C4C4"/>
<circle cx="72.5" cy="86.5" r="2.5" fill="#C4C4C4"/>
<circle cx="82.5" cy="86.5" r="2.5" fill="#C4C4C4"/>
<circle cx="92.5" cy="86.5" r="2.5" fill="#C4C4C4"/>
<circle cx="102.5" cy="86.5" r="2.5" fill="#C4C4C4"/>
<circle cx="112.5" cy="86.5" r="2.5" fill="#C4C4C4"/>
<circle cx="122.5" cy="86.5" r="2.5" fill="#C4C4C4"/>
<circle cx="132.5" cy="86.5" r="2.5" fill="#C4C4C4"/>
<circle cx="142.5" cy="86.5" r="2.5" fill="#C4C4C4"/>
<circle cx="152.5" cy="86.5" r="2.5" fill="#C4C4C4"/>
<circle cx="2.5" cy="100.5" r="2.5" fill="#C4C4C4"/>
<circle cx="12.5" cy="100.5" r="2.5" fill="#C4C4C4"/>
<circle cx="22.5" cy="100.5" r="2.5" fill="#C4C4C4"/>
<circle cx="32.5" cy="100.5" r="2.5" fill="#C4C4C4"/>
<circle cx="42.5" cy="100.5" r="2.5" fill="#C4C4C4"/>
<circle cx="52.5" cy="100.5" r="2.5" fill="#C4C4C4"/>
<circle cx="62.5" cy="100.5" r="2.5" fill="#C4C4C4"/>
<circle cx="72.5" cy="100.5" r="2.5" fill="#C4C4C4"/>
<circle cx="82.5" cy="100.5" r="2.5" fill="#C4C4C4"/>
<circle cx="92.5" cy="100.5" r="2.5" fill="#C4C4C4"/>
<circle cx="102.5" cy="100.5" r="2.5" fill="#C4C4C4"/>
<circle cx="112.5" cy="100.5" r="2.5" fill="#C4C4C4"/>
<circle cx="122.5" cy="100.5" r="2.5" fill="#C4C4C4"/>
<circle cx="132.5" cy="100.5" r="2.5" fill="#C4C4C4"/>
<circle cx="142.5" cy="100.5" r="2.5" fill="#C4C4C4"/>
<circle cx="152.5" cy="100.5" r="2.5" fill="#C4C4C4"/>
<circle cx="2.5" cy="114.5" r="2.5" fill="#C4C4C4"/>
<circle cx="12.5" cy="114.5" r="2.5" fill="#C4C4C4"/>
<circle cx="22.5" cy="114.5" r="2.5" fill="#C4C4C4"/>
<circle cx="32.5" cy="114.5" r="2.5" fill="#C4C4C4"/>
<circle cx="42.5" cy="114.5" r="2.5" fill="#C4C4C4"/>
<circle cx="52.5" cy="114.5" r="2.5" fill="#C4C4C4"/>
<circle cx="62.5" cy="114.5" r="2.5" fill="#C4C4C4"/>
<circle cx="72.5" cy="114.5" r="2.5" fill="#C4C4C4"/>
<circle cx="82.5" cy="114.5" r="2.5" fill="#C4C4C4"/>
<circle cx="92.5" cy="114.5" r="2.5" fill="#C4C4C4"/>
<circle cx="102.5" cy="114.5" r="2.5" fill="#C4C4C4"/>
<circle cx="112.5" cy="114.5" r="2.5" fill="#C4C4C4"/>
<circle cx="122.5" cy="114.5" r="2.5" fill="#C4C4C4"/>
<circle cx="132.5" cy="114.5" r="2.5" fill="#C4C4C4"/>
<circle cx="142.5" cy="114.5" r="2.5" fill="#C4C4C4"/>
<circle cx="152.5" cy="114.5" r="2.5" fill="#C4C4C4"/>
<circle cx="2.5" cy="128.5" r="2.5" fill="#C4C4C4"/>
<circle cx="12.5" cy="128.5" r="2.5" fill="#C4C4C4"/>
<circle cx="22.5" cy="128.5" r="2.5" fill="#C4C4C4"/>
<circle cx="32.5" cy="128.5" r="2.5" fill="#C4C4C4"/>
<circle cx="42.5" cy="128.5" r="2.5" fill="#C4C4C4"/>
<circle cx="52.5" cy="128.5" r="2.5" fill="#C4C4C4"/>
<circle cx="62.5" cy="128.5" r="2.5" fill="#C4C4C4"/>
<circle cx="72.5" cy="128.5" r="2.5" fill="#C4C4C4"/>
<circle cx="82.5" cy="128.5" r="2.5" fill="#C4C4C4"/>
<circle cx="92.5" cy="128.5" r="2.5" fill="#C4C4C4"/>
<circle cx="102.5" cy="128.5" r="2.5" fill="#C4C4C4"/>
<circle cx="112.5" cy="128.5" r="2.5" fill="#C4C4C4"/>
<circle cx="122.5" cy="128.5" r="2.5" fill="#C4C4C4"/>
<circle cx="132.5" cy="128.5" r="2.5" fill="#C4C4C4"/>
<circle cx="142.5" cy="128.5" r="2.5" fill="#C4C4C4"/>
<circle cx="152.5" cy="128.5" r="2.5" fill="#C4C4C4"/>
<circle cx="2.5" cy="142.5" r="2.5" fill="#C4C4C4"/>
<circle cx="12.5" cy="142.5" r="2.5" fill="#C4C4C4"/>
<circle cx="22.5" cy="142.5" r="2.5" fill="#C4C4C4"/>
<circle cx="32.5" cy="142.5" r="2.5" fill="#C4C4C4"/>
<circle cx="42.5" cy="142.5" r="2.5" fill="#C4C4C4"/>
<circle cx="52.5" cy="142.5" r="2.5" fill="#C4C4C4"/>
<circle cx="62.5" cy="142.5" r="2.5" fill="#C4C4C4"/>
<circle cx="72.5" cy="142.5" r="2.5" fill="#C4C4C4"/>
<circle cx="82.5" cy="142.5" r="2.5" fill="#C4C4C4"/>
<circle cx="92.5" cy="142.5" r="2.5" fill="#C4C4C4"/>
<circle cx="102.5" cy="142.5" r="2.5" fill="#C4C4C4"/>
<circle cx="112.5" cy="142.5" r="2.5" fill="#C4C4C4"/>
<circle cx="122.5" cy="142.5" r="2.5" fill="#C4C4C4"/>
<circle cx="132.5" cy="142.5" r="2.5" fill="#C4C4C4"/>
<circle cx="142.5" cy="142.5" r="2.5" fill="#C4C4C4"/>
<circle cx="152.5" cy="142.5" r="2.5" fill="#C4C4C4"/>
</svg>
