<svg width="16" height="20" viewBox="0 0 16 20" fill="none" xmlns="http://www.w3.org/2000/svg">
<path d="M1.33398 19.0008V19.008C1.33398 19.5529 1.7731 19.9947 2.31621 20H13.6851C13.9466 19.9974 14.1966 19.8916 14.3805 19.7057C14.5645 19.5197 14.6676 19.2686 14.6673 19.0071V5.66513H1.33398V19.0008ZM2.66732 7.0003H13.334V18.6675H2.66732V7.0003Z" fill="#DDDDDD"/>
<path d="M4.33398 8.33371H5.66732V16.6674H4.33398V8.33371Z" fill="#DDDDDD"/>
<path d="M7.33398 8.33371H8.66732V16.6674H7.33398V8.33371Z" fill="#DDDDDD"/>
<path d="M10.334 8.33371H11.6673V16.6674H10.334V8.33371Z" fill="#DDDDDD"/>
<path d="M11.0009 3.00014V1.00005C11.0009 0.439131 10.6053 0 10.1004 0H5.90044C5.39556 0 5 0.439131 5 1.00005V3.00014H0V4.33353H16V3.00014H11.0009ZM6.33422 1.33339H9.66755V3.00014H6.33422V1.33339Z" fill="#DDDDDD"/>
</svg>
