<svg width="21" height="21" viewBox="0 0 21 21" fill="none" xmlns="http://www.w3.org/2000/svg">
<path d="M18.6667 2.33333H16.3333V0H4.66667V2.33333H2.33333C1.05 2.33333 0 3.38333 0 4.66667V5.83333C0 8.80833 2.24 11.235 5.12167 11.5967C5.49063 12.4709 6.0669 13.2422 6.80069 13.8439C7.53448 14.4455 8.40373 14.8595 9.33333 15.05V18.6667H4.66667V21H16.3333V18.6667H11.6667V15.05C12.5963 14.8595 13.4655 14.4455 14.1993 13.8439C14.9331 13.2422 15.5094 12.4709 15.8783 11.5967C18.76 11.235 21 8.80833 21 5.83333V4.66667C21 3.38333 19.95 2.33333 18.6667 2.33333ZM2.33333 5.83333V4.66667H4.66667V9.12333C3.31333 8.63333 2.33333 7.35 2.33333 5.83333ZM10.5 12.8333C8.575 12.8333 7 11.2583 7 9.33333V2.33333H14V9.33333C14 11.2583 12.425 12.8333 10.5 12.8333ZM18.6667 5.83333C18.6667 7.35 17.6867 8.63333 16.3333 9.12333V4.66667H18.6667V5.83333Z" fill="#DDDDDD"/>
</svg>
