<svg width="21" height="22" viewBox="0 0 21 22" fill="none" xmlns="http://www.w3.org/2000/svg">
<path d="M6.37033 0.00787468C6.16104 0.0380661 5.97095 0.156232 5.84083 0.337038L3.09086 4.09477L1.27476 2.77812C1.18531 2.71278 1.08488 2.66731 0.979223 2.64429C0.87357 2.62127 0.764777 2.62117 0.659086 2.64398C0.553396 2.6668 0.452889 2.71209 0.363333 2.77725C0.273776 2.84241 0.196932 2.92616 0.137211 3.0237C0.0774896 3.12123 0.0360661 3.23063 0.0153172 3.34562C-0.00543164 3.4606 -0.00509739 3.57891 0.0163008 3.69376C0.037699 3.80861 0.0797398 3.91773 0.140011 4.01486C0.200282 4.11199 0.277598 4.19523 0.367521 4.25979L2.78898 6.01533C2.9587 6.13821 3.16489 6.1867 3.36613 6.15104C3.56737 6.11538 3.74874 5.99822 3.8738 5.8231L7.10242 1.43425C7.20516 1.29795 7.2678 1.13116 7.28217 0.955611C7.29654 0.780058 7.26199 0.603865 7.183 0.449967C7.10401 0.296068 6.98425 0.171593 6.8393 0.092743C6.69436 0.013893 6.53094 -0.0156796 6.37033 0.00787468ZM9.69984 2.64118V4.39672H21V2.64118H9.69984ZM6.37033 7.9078C6.16104 7.93799 5.97095 8.05616 5.84083 8.23696L3.09086 11.9947L1.27476 10.678C1.09409 10.5471 0.872977 10.4996 0.660074 10.5459C0.447171 10.5922 0.259915 10.7287 0.1395 10.9251C0.0190853 11.1216 -0.0246245 11.3621 0.0179864 11.5936C0.0605973 11.8251 0.186038 12.0288 0.366714 12.1597L2.78818 13.9153C2.95789 14.0381 3.16408 14.0866 3.36532 14.051C3.56656 14.0153 3.74793 13.8981 3.87299 13.723L7.10161 9.33418C7.20427 9.19793 7.26687 9.03124 7.28125 8.85579C7.29564 8.68034 7.26115 8.50424 7.18228 8.35038C7.1034 8.19653 6.98378 8.07205 6.83897 7.99312C6.69417 7.91418 6.53088 7.88446 6.37033 7.9078ZM9.69984 10.5411V12.2966H21V10.5411H9.69984ZM6.37033 15.8077C6.16104 15.8379 5.97095 15.9561 5.84083 16.1369L3.09086 19.8946L1.27476 18.578C1.1853 18.5131 1.08497 18.4681 0.979503 18.4454C0.874035 18.4227 0.765493 18.4229 0.660074 18.4458C0.447171 18.4922 0.259915 18.6286 0.1395 18.8251C0.0190853 19.0215 -0.0246245 19.262 0.0179864 19.4935C0.0605973 19.7251 0.186038 19.9287 0.366714 20.0596L2.78818 21.8152C2.95789 21.9381 3.16408 21.9865 3.36532 21.9509C3.56656 21.9152 3.74793 21.7981 3.87299 21.6229L7.10161 17.2341C7.20427 17.0979 7.26687 16.9312 7.28125 16.7557C7.29564 16.5803 7.26115 16.4042 7.18228 16.2503C7.1034 16.0965 6.98378 15.972 6.83897 15.893C6.69417 15.8141 6.53088 15.7844 6.37033 15.8077ZM9.69984 18.441V20.1966H21V18.441H9.69984Z" fill="#C4C4C4"/>
</svg>
