<svg width="40" height="38" viewBox="0 0 40 38" fill="none" xmlns="http://www.w3.org/2000/svg">
<path d="M25.6001 3.40495L39.0021 26.9672C40.9281 30.3514 39.9821 34.8037 36.8881 36.9107C35.8497 37.6204 34.6392 37.9987 33.4021 38H6.59602C2.95401 38 0 34.77 0 30.7821C0 29.433 0.346001 28.1136 0.996003 26.9672L14.4 3.40495C16.324 0.020812 20.3921 -1.01575 23.4861 1.09115C24.3421 1.67383 25.0661 2.4655 25.6001 3.40495ZM21.1601 5.17619C20.9152 5.00995 20.641 4.89783 20.3539 4.84659C20.0669 4.79536 19.773 4.80607 19.49 4.87809C19.207 4.95011 18.9407 5.08194 18.7073 5.26562C18.4739 5.44929 18.2782 5.681 18.1321 5.94675L4.73001 29.5133C4.51231 29.8973 4.39755 30.3366 4.39801 30.7842C4.39801 32.1142 5.38202 33.1908 6.59802 33.1908H33.4001C33.8121 33.1908 34.2141 33.0642 34.5621 32.8277C35.0615 32.4775 35.4136 31.9375 35.5451 31.32C35.6766 30.7026 35.5774 30.0554 35.2681 29.5133L21.8661 5.94675C21.6903 5.63646 21.4495 5.37285 21.1621 5.17619H21.1601ZM20.0001 29.5555C19.4696 29.5555 18.9609 29.3331 18.5858 28.9372C18.2108 28.5412 18.0001 28.0043 18.0001 27.4444C18.0001 26.8845 18.2108 26.3475 18.5858 25.9516C18.9609 25.5557 19.4696 25.3332 20.0001 25.3332C20.5305 25.3332 21.0392 25.5557 21.4143 25.9516C21.7893 26.3475 22.0001 26.8845 22.0001 27.4444C22.0001 28.0043 21.7893 28.5412 21.4143 28.9372C21.0392 29.3331 20.5305 29.5555 20.0001 29.5555ZM20.0001 10.5553C20.5305 10.5553 21.0392 10.7778 21.4143 11.1737C21.7893 11.5696 22.0001 12.1066 22.0001 12.6665V21.111C22.0001 21.6709 21.7893 22.2079 21.4143 22.6038C21.0392 22.9997 20.5305 23.2221 20.0001 23.2221C19.4696 23.2221 18.9609 22.9997 18.5858 22.6038C18.2108 22.2079 18.0001 21.6709 18.0001 21.111V12.6665C18.0001 12.1066 18.2108 11.5696 18.5858 11.1737C18.9609 10.7778 19.4696 10.5553 20.0001 10.5553Z" fill="#F13843"/>
</svg>
